<svg id="svg" version="1.1" width="400" height="515.6069364161849" viewBox="0 0 400 515.6069364161849" xmlns="http://www.w3.org/2000/svg" xmlns:xlink="http://www.w3.org/1999/xlink" ><g id="svgg"><path id="path0" d="M164.800 5.153 C 164.800 9.970,164.748 10.320,164.000 10.516 C 163.521 10.641,163.200 11.062,163.200 11.563 C 163.200 12.375,163.023 12.400,157.200 12.400 L 151.200 12.400 151.200 15.953 C 151.200 19.213,151.131 19.525,150.370 19.724 C 149.914 19.843,149.443 20.314,149.324 20.770 C 149.114 21.571,148.856 21.600,141.953 21.600 L 134.800 21.600 134.800 149.026 C 134.800 236.100,134.669 276.698,134.386 277.226 C 133.770 278.378,121.299 278.415,120.262 277.269 C 119.652 276.594,119.600 271.537,119.600 212.669 L 119.600 148.800 112.400 148.800 C 105.359 148.800,105.200 148.781,105.200 147.963 C 105.200 147.462,104.879 147.041,104.400 146.916 C 103.676 146.727,103.600 146.370,103.600 143.153 L 103.600 139.600 97.400 139.600 C 91.374 139.600,91.200 139.576,91.200 138.763 C 91.200 138.262,90.879 137.841,90.400 137.716 C 89.657 137.522,89.600 137.170,89.600 132.753 L 89.600 128.000 67.200 128.000 L 44.800 128.000 44.800 132.753 C 44.800 137.227,44.751 137.519,43.970 137.724 C 43.514 137.843,43.043 138.314,42.924 138.770 C 42.716 139.563,42.441 139.600,36.753 139.600 L 30.800 139.600 30.800 143.153 C 30.800 146.370,30.724 146.727,30.000 146.916 C 29.521 147.041,29.200 147.462,29.200 147.963 C 29.200 148.782,29.044 148.800,21.799 148.800 L 14.398 148.800 14.499 228.900 L 14.600 309.000 21.900 309.109 C 28.869 309.213,29.200 309.254,29.200 310.009 C 29.200 310.533,29.470 310.800,30.000 310.800 C 30.744 310.800,30.800 311.067,30.800 314.600 L 30.800 318.400 36.753 318.400 C 42.441 318.400,42.716 318.437,42.924 319.230 C 43.043 319.686,43.514 320.157,43.970 320.276 C 44.751 320.481,44.800 320.773,44.800 325.247 L 44.800 330.000 52.000 330.000 C 58.933 330.000,59.200 330.030,59.200 330.800 C 59.200 331.333,59.467 331.600,60.000 331.600 C 60.744 331.600,60.800 331.867,60.800 335.400 L 60.800 339.200 66.753 339.200 C 72.441 339.200,72.716 339.237,72.924 340.030 C 73.043 340.486,73.514 340.957,73.970 341.076 C 74.751 341.281,74.800 341.573,74.800 346.047 L 74.800 350.800 103.911 350.800 C 129.611 350.800,133.126 350.873,133.911 351.423 L 134.800 352.045 134.800 414.946 C 134.800 464.643,134.695 477.988,134.300 478.518 C 133.875 479.088,132.842 479.204,127.400 479.294 L 121.000 479.400 120.888 484.300 C 120.793 488.429,120.677 489.200,120.150 489.200 C 119.806 489.200,119.431 489.560,119.316 490.000 C 119.117 490.761,118.770 490.800,112.200 490.800 C 105.630 490.800,105.283 490.761,105.084 490.000 C 104.969 489.560,104.594 489.200,104.250 489.200 C 103.723 489.200,103.607 488.429,103.512 484.300 L 103.400 479.400 97.200 479.400 L 91.000 479.400 90.888 484.300 C 90.793 488.429,90.677 489.200,90.150 489.200 C 89.806 489.200,89.432 489.556,89.318 489.991 C 89.123 490.736,88.700 490.788,82.056 490.891 L 75.000 491.000 74.886 494.900 L 74.771 498.800 81.986 498.800 C 88.933 498.800,89.200 498.830,89.200 499.600 C 89.200 500.129,89.467 500.400,89.988 500.400 C 90.722 500.400,90.783 500.730,90.888 505.300 L 91.000 510.200 97.200 510.200 L 103.400 510.200 103.512 505.300 C 103.617 500.730,103.678 500.400,104.412 500.400 C 104.933 500.400,105.200 500.129,105.200 499.600 C 105.200 498.830,105.467 498.800,112.200 498.800 C 118.933 498.800,119.200 498.830,119.200 499.600 C 119.200 500.129,119.467 500.400,119.988 500.400 C 120.722 500.400,120.783 500.730,120.888 505.300 L 121.000 510.200 195.400 510.200 L 269.800 510.200 270.000 425.268 C 270.197 341.776,270.213 340.326,270.976 339.768 C 271.624 339.294,275.265 339.200,292.876 339.200 L 314.000 339.200 314.000 335.400 C 314.000 331.867,314.056 331.600,314.800 331.600 C 315.333 331.600,315.600 331.333,315.600 330.800 C 315.600 330.030,315.867 330.000,322.800 330.000 L 330.000 330.000 330.000 325.247 C 330.000 320.830,330.057 320.478,330.800 320.284 C 331.279 320.159,331.600 319.738,331.600 319.237 C 331.600 318.424,331.774 318.400,337.800 318.400 L 344.000 318.400 344.000 314.600 C 344.000 311.067,344.056 310.800,344.800 310.800 C 345.333 310.800,345.600 310.533,345.600 310.000 C 345.600 309.230,345.867 309.200,352.800 309.200 L 360.000 309.200 360.000 304.447 C 360.000 299.973,360.049 299.681,360.830 299.476 C 361.286 299.357,361.757 298.886,361.876 298.430 C 362.084 297.637,362.359 297.600,368.047 297.600 L 374.000 297.600 374.000 292.847 C 374.000 288.430,374.057 288.078,374.800 287.884 C 375.279 287.759,375.600 287.338,375.600 286.837 C 375.600 286.019,375.759 286.000,382.800 286.000 L 390.000 286.000 390.000 207.000 L 390.000 128.000 382.800 128.000 C 375.759 128.000,375.600 127.981,375.600 127.163 C 375.600 126.662,375.279 126.241,374.800 126.116 C 374.076 125.927,374.000 125.570,374.000 122.353 L 374.000 118.800 368.047 118.800 C 362.359 118.800,362.084 118.763,361.876 117.970 C 361.757 117.514,361.286 117.043,360.830 116.924 C 360.049 116.719,360.000 116.427,360.000 111.953 L 360.000 107.200 337.600 107.200 L 315.200 107.200 315.200 111.953 C 315.200 116.370,315.143 116.722,314.400 116.916 C 313.921 117.041,313.600 117.462,313.600 117.963 C 313.600 118.776,313.426 118.800,307.400 118.800 L 301.200 118.800 301.200 122.353 C 301.200 125.570,301.124 125.927,300.400 126.116 C 299.921 126.241,299.600 126.662,299.600 127.163 C 299.600 127.981,299.441 128.000,292.400 128.000 L 285.200 128.000 285.200 202.111 C 285.200 268.540,285.135 276.314,284.577 277.111 C 283.831 278.176,271.188 278.526,270.524 277.500 C 270.346 277.225,270.110 219.580,270.000 149.400 L 269.800 21.800 262.744 21.691 C 256.012 21.587,255.679 21.544,255.474 20.761 C 255.356 20.310,254.886 19.843,254.430 19.724 C 253.669 19.525,253.600 19.213,253.600 15.953 L 253.600 12.400 247.600 12.400 C 241.777 12.400,241.600 12.375,241.600 11.563 C 241.600 11.062,241.279 10.641,240.800 10.516 C 240.052 10.320,240.000 9.970,240.000 5.153 L 240.000 0.000 202.400 0.000 L 164.800 0.000 164.800 5.153 M240.400 11.590 C 240.846 11.871,241.051 13.024,241.200 16.084 L 241.400 20.200 247.572 20.311 C 251.292 20.378,253.954 20.596,254.272 20.860 C 254.707 21.221,254.800 44.475,254.800 153.400 C 254.800 264.427,254.887 285.574,255.345 285.954 C 255.739 286.282,261.964 286.378,277.845 286.303 L 299.800 286.200 300.000 206.933 C 300.110 163.337,300.349 127.517,300.532 127.333 C 300.715 127.150,303.775 126.910,307.332 126.800 L 313.800 126.600 313.915 122.622 C 314.077 117.038,311.432 117.600,337.569 117.600 C 363.656 117.600,361.200 117.122,361.200 122.200 C 361.200 126.983,360.922 126.800,368.200 126.800 C 372.364 126.800,374.389 126.949,374.720 127.280 C 375.418 127.978,375.418 286.022,374.720 286.720 C 374.389 287.051,372.364 287.200,368.200 287.200 C 360.766 287.200,361.200 286.839,361.200 293.031 C 361.200 299.180,361.809 298.757,352.770 298.891 L 345.400 299.000 345.200 304.282 C 344.953 310.794,345.476 310.356,337.791 310.489 L 331.400 310.600 331.286 314.662 C 331.141 319.853,331.638 319.559,322.770 319.691 L 315.400 319.800 315.288 324.848 C 315.131 331.993,319.046 331.176,284.371 331.297 L 255.000 331.400 254.899 415.160 C 254.825 476.266,254.677 499.066,254.350 499.460 C 253.593 500.372,121.341 500.252,120.331 499.338 C 119.724 498.789,119.600 498.054,119.600 495.014 C 119.600 489.338,118.160 489.835,135.267 489.600 L 149.800 489.400 149.901 415.442 C 149.975 361.110,149.883 341.341,149.552 340.942 C 149.179 340.493,142.704 340.400,111.800 340.400 C 81.593 340.400,74.415 340.301,74.064 339.878 C 73.826 339.590,73.579 337.565,73.515 335.378 L 73.400 331.400 67.009 331.289 C 59.324 331.156,59.847 331.594,59.600 325.082 L 59.400 319.800 52.030 319.691 C 43.162 319.559,43.659 319.853,43.514 314.662 L 43.400 310.600 37.028 310.489 C 33.160 310.422,30.449 310.207,30.128 309.941 C 29.386 309.325,29.338 148.822,30.080 148.080 C 30.411 147.749,32.436 147.600,36.600 147.600 C 43.878 147.600,43.600 147.783,43.600 143.000 C 43.600 137.922,41.144 138.400,67.231 138.400 C 93.368 138.400,90.723 137.838,90.885 143.422 L 91.000 147.400 97.247 147.510 C 102.669 147.605,103.580 147.715,104.146 148.340 C 104.742 148.999,104.806 154.903,104.899 217.630 L 105.000 286.200 126.955 286.303 C 142.836 286.378,149.061 286.282,149.455 285.954 C 149.913 285.574,150.000 264.427,150.000 153.400 C 150.000 44.475,150.093 21.221,150.528 20.860 C 150.846 20.596,153.508 20.378,157.228 20.311 L 163.400 20.200 163.600 16.200 C 163.710 14.000,163.946 11.975,164.124 11.700 C 164.526 11.078,239.416 10.970,240.400 11.590 M301.477 470.257 C 301.325 470.409,301.200 472.123,301.200 474.067 C 301.200 477.033,301.098 477.600,300.563 477.600 C 300.212 477.600,299.832 477.956,299.718 478.391 C 299.523 479.136,299.100 479.188,292.456 479.291 L 285.400 479.400 285.288 484.500 L 285.176 489.600 292.388 489.600 C 299.333 489.600,299.600 489.630,299.600 490.400 C 299.600 490.928,299.867 491.200,300.385 491.200 C 301.100 491.200,301.180 491.529,301.285 494.900 L 301.400 498.600 307.600 498.600 L 313.800 498.600 313.915 494.900 C 314.020 491.529,314.100 491.200,314.815 491.200 C 315.333 491.200,315.600 490.928,315.600 490.400 C 315.600 489.630,315.867 489.600,322.812 489.600 L 330.024 489.600 329.912 484.500 L 329.800 479.400 322.700 479.291 C 316.560 479.196,315.600 479.097,315.600 478.553 C 315.600 478.208,315.246 477.833,314.814 477.720 C 314.117 477.537,314.016 477.103,313.914 473.857 L 313.800 470.200 307.777 470.090 C 304.464 470.029,301.629 470.104,301.477 470.257 M314.400 478.800 C 315.112 479.512,315.200 480.133,315.200 484.469 C 315.200 491.104,315.561 490.800,307.670 490.800 C 299.630 490.800,300.000 491.102,300.000 484.538 C 300.000 477.778,299.742 478.000,307.600 478.000 C 313.067 478.000,313.671 478.071,314.400 478.800 M104.000 490.400 C 104.684 491.084,104.800 491.733,104.800 494.869 C 104.800 500.130,104.994 500.000,97.167 500.000 C 89.341 500.000,89.600 500.172,89.600 494.971 C 89.600 489.556,89.538 489.600,97.200 489.600 C 102.667 489.600,103.271 489.671,104.000 490.400 " stroke="none" fill="#34495e" fill-rule="evenodd"></path><path id="path1" d="M0.000 257.800 L 0.000 515.600 200.000 515.600 L 400.000 515.600 400.000 257.800 L 400.000 0.000 320.000 0.000 L 240.000 0.000 240.000 5.153 C 240.000 9.970,240.052 10.320,240.800 10.516 C 241.279 10.641,241.600 11.062,241.600 11.563 C 241.600 12.375,241.777 12.400,247.600 12.400 L 253.600 12.400 253.600 15.953 C 253.600 19.213,253.669 19.525,254.430 19.724 C 254.886 19.843,255.356 20.310,255.474 20.761 C 255.679 21.544,256.012 21.587,262.744 21.691 L 269.800 21.800 270.000 149.400 C 270.110 219.580,270.346 277.225,270.524 277.500 C 271.188 278.526,283.831 278.176,284.577 277.111 C 285.135 276.314,285.200 268.540,285.200 202.111 L 285.200 128.000 292.400 128.000 C 299.441 128.000,299.600 127.981,299.600 127.163 C 299.600 126.662,299.921 126.241,300.400 126.116 C 301.124 125.927,301.200 125.570,301.200 122.353 L 301.200 118.800 307.400 118.800 C 313.426 118.800,313.600 118.776,313.600 117.963 C 313.600 117.462,313.921 117.041,314.400 116.916 C 315.143 116.722,315.200 116.370,315.200 111.953 L 315.200 107.200 337.600 107.200 L 360.000 107.200 360.000 111.953 C 360.000 116.427,360.049 116.719,360.830 116.924 C 361.286 117.043,361.757 117.514,361.876 117.970 C 362.084 118.763,362.359 118.800,368.047 118.800 L 374.000 118.800 374.000 122.353 C 374.000 125.570,374.076 125.927,374.800 126.116 C 375.279 126.241,375.600 126.662,375.600 127.163 C 375.600 127.981,375.759 128.000,382.800 128.000 L 390.000 128.000 390.000 207.000 L 390.000 286.000 382.800 286.000 C 375.759 286.000,375.600 286.019,375.600 286.837 C 375.600 287.338,375.279 287.759,374.800 287.884 C 374.057 288.078,374.000 288.430,374.000 292.847 L 374.000 297.600 368.047 297.600 C 362.359 297.600,362.084 297.637,361.876 298.430 C 361.757 298.886,361.286 299.357,360.830 299.476 C 360.049 299.681,360.000 299.973,360.000 304.447 L 360.000 309.200 352.800 309.200 C 345.867 309.200,345.600 309.230,345.600 310.000 C 345.600 310.533,345.333 310.800,344.800 310.800 C 344.056 310.800,344.000 311.067,344.000 314.600 L 344.000 318.400 337.800 318.400 C 331.774 318.400,331.600 318.424,331.600 319.237 C 331.600 319.738,331.279 320.159,330.800 320.284 C 330.057 320.478,330.000 320.830,330.000 325.247 L 330.000 330.000 322.800 330.000 C 315.867 330.000,315.600 330.030,315.600 330.800 C 315.600 331.333,315.333 331.600,314.800 331.600 C 314.056 331.600,314.000 331.867,314.000 335.400 L 314.000 339.200 292.876 339.200 C 275.265 339.200,271.624 339.294,270.976 339.768 C 270.213 340.326,270.197 341.776,270.000 425.268 L 269.800 510.200 195.400 510.200 L 121.000 510.200 120.888 505.300 C 120.783 500.730,120.722 500.400,119.988 500.400 C 119.467 500.400,119.200 500.129,119.200 499.600 C 119.200 498.830,118.933 498.800,112.200 498.800 C 105.467 498.800,105.200 498.830,105.200 499.600 C 105.200 500.129,104.933 500.400,104.412 500.400 C 103.678 500.400,103.617 500.730,103.512 505.300 L 103.400 510.200 97.200 510.200 L 91.000 510.200 90.888 505.300 C 90.783 500.730,90.722 500.400,89.988 500.400 C 89.467 500.400,89.200 500.129,89.200 499.600 C 89.200 498.830,88.933 498.800,81.986 498.800 L 74.771 498.800 74.886 494.900 L 75.000 491.000 82.056 490.891 C 88.700 490.788,89.123 490.736,89.318 489.991 C 89.432 489.556,89.806 489.200,90.150 489.200 C 90.677 489.200,90.793 488.429,90.888 484.300 L 91.000 479.400 97.200 479.400 L 103.400 479.400 103.512 484.300 C 103.607 488.429,103.723 489.200,104.250 489.200 C 104.594 489.200,104.969 489.560,105.084 490.000 C 105.409 491.244,118.991 491.244,119.316 490.000 C 119.431 489.560,119.806 489.200,120.150 489.200 C 120.677 489.200,120.793 488.429,120.888 484.300 L 121.000 479.400 127.400 479.294 C 132.842 479.204,133.875 479.088,134.300 478.518 C 134.695 477.988,134.800 464.643,134.800 414.946 L 134.800 352.045 133.911 351.423 C 133.126 350.873,129.611 350.800,103.911 350.800 L 74.800 350.800 74.800 346.047 C 74.800 341.573,74.751 341.281,73.970 341.076 C 73.514 340.957,73.043 340.486,72.924 340.030 C 72.716 339.237,72.441 339.200,66.753 339.200 L 60.800 339.200 60.800 335.400 C 60.800 331.867,60.744 331.600,60.000 331.600 C 59.467 331.600,59.200 331.333,59.200 330.800 C 59.200 330.030,58.933 330.000,52.000 330.000 L 44.800 330.000 44.800 325.247 C 44.800 320.773,44.751 320.481,43.970 320.276 C 43.514 320.157,43.043 319.686,42.924 319.230 C 42.716 318.437,42.441 318.400,36.753 318.400 L 30.800 318.400 30.800 314.600 C 30.800 311.067,30.744 310.800,30.000 310.800 C 29.470 310.800,29.200 310.533,29.200 310.009 C 29.200 309.254,28.869 309.213,21.900 309.109 L 14.600 309.000 14.499 228.900 L 14.398 148.800 21.799 148.800 C 29.044 148.800,29.200 148.782,29.200 147.963 C 29.200 147.462,29.521 147.041,30.000 146.916 C 30.724 146.727,30.800 146.370,30.800 143.153 L 30.800 139.600 36.753 139.600 C 42.441 139.600,42.716 139.563,42.924 138.770 C 43.043 138.314,43.514 137.843,43.970 137.724 C 44.751 137.519,44.800 137.227,44.800 132.753 L 44.800 128.000 67.200 128.000 L 89.600 128.000 89.600 132.753 C 89.600 137.170,89.657 137.522,90.400 137.716 C 90.879 137.841,91.200 138.262,91.200 138.763 C 91.200 139.576,91.374 139.600,97.400 139.600 L 103.600 139.600 103.600 143.153 C 103.600 146.370,103.676 146.727,104.400 146.916 C 104.879 147.041,105.200 147.462,105.200 147.963 C 105.200 148.781,105.359 148.800,112.400 148.800 L 119.600 148.800 119.600 212.738 C 119.600 274.172,119.629 276.702,120.331 277.338 C 121.524 278.417,133.801 278.320,134.386 277.226 C 134.669 276.698,134.800 236.100,134.800 149.026 L 134.800 21.600 141.953 21.600 C 148.856 21.600,149.114 21.571,149.324 20.770 C 149.443 20.314,149.914 19.843,150.370 19.724 C 151.131 19.525,151.200 19.213,151.200 15.953 L 151.200 12.400 157.200 12.400 C 163.023 12.400,163.200 12.375,163.200 11.563 C 163.200 11.062,163.521 10.641,164.000 10.516 C 164.748 10.320,164.800 9.970,164.800 5.153 L 164.800 0.000 82.400 0.000 L 0.000 0.000 0.000 257.800 M313.914 473.857 C 314.016 477.103,314.117 477.537,314.814 477.720 C 315.246 477.833,315.600 478.208,315.600 478.553 C 315.600 479.097,316.560 479.196,322.700 479.291 L 329.800 479.400 329.912 484.500 L 330.024 489.600 322.812 489.600 C 315.867 489.600,315.600 489.630,315.600 490.400 C 315.600 490.928,315.333 491.200,314.815 491.200 C 314.100 491.200,314.020 491.529,313.915 494.900 L 313.800 498.600 307.600 498.600 L 301.400 498.600 301.285 494.900 C 301.180 491.529,301.100 491.200,300.385 491.200 C 299.867 491.200,299.600 490.928,299.600 490.400 C 299.600 489.630,299.333 489.600,292.388 489.600 L 285.176 489.600 285.288 484.500 L 285.400 479.400 292.456 479.291 C 299.100 479.188,299.523 479.136,299.718 478.391 C 299.832 477.956,300.212 477.600,300.563 477.600 C 301.098 477.600,301.200 477.033,301.200 474.067 C 301.200 469.645,300.679 469.960,307.777 470.090 L 313.800 470.200 313.914 473.857 " stroke="none" fill="#34495e" fill-rule="evenodd"></path><path id="path2" d="M164.800 16.377 C 164.800 21.688,164.930 21.600,157.111 21.600 L 151.200 21.600 151.200 153.618 L 151.200 285.636 150.218 286.618 L 149.236 287.600 127.307 287.600 C 108.107 287.600,105.267 287.523,104.489 286.977 L 103.600 286.355 103.600 217.577 L 103.600 148.800 97.400 148.800 C 89.503 148.800,89.600 148.867,89.600 143.400 L 89.600 139.600 67.237 139.600 L 44.875 139.600 44.737 143.581 C 44.557 148.812,44.908 148.573,37.181 148.728 L 30.800 148.855 30.800 229.028 L 30.800 309.200 37.000 309.200 C 44.897 309.200,44.800 309.133,44.800 314.600 L 44.800 318.400 51.911 318.400 C 61.307 318.400,60.800 318.034,60.800 324.823 L 60.800 330.000 67.177 330.000 C 74.990 330.000,74.800 329.863,74.800 335.489 L 74.800 339.200 111.700 339.205 C 151.157 339.211,150.076 339.171,150.751 340.653 C 151.612 342.543,151.366 488.911,150.500 489.958 C 149.814 490.787,149.516 490.806,135.400 490.902 L 121.000 491.000 121.000 494.800 L 121.000 498.600 187.300 498.701 L 253.600 498.802 253.600 415.278 C 253.600 343.780,253.682 331.641,254.168 330.976 C 254.718 330.223,255.617 330.194,284.268 330.000 L 313.800 329.800 314.000 324.532 C 314.110 321.634,314.350 319.114,314.532 318.932 C 314.715 318.749,318.270 318.544,322.432 318.476 L 330.000 318.352 330.000 314.620 C 330.000 309.137,329.873 309.229,337.600 309.102 L 343.800 309.000 343.904 304.000 C 344.043 297.263,343.574 297.600,352.813 297.600 L 359.936 297.600 360.068 292.419 C 360.236 285.810,359.737 286.230,367.619 286.072 L 374.000 285.945 374.000 207.000 L 374.000 128.055 367.619 127.928 C 359.892 127.773,360.243 128.012,360.063 122.781 L 359.925 118.800 337.563 118.800 L 315.200 118.800 315.200 122.600 C 315.200 128.067,315.297 128.000,307.400 128.000 L 301.200 128.000 301.200 207.177 L 301.200 286.355 300.311 286.977 C 299.181 287.769,256.766 287.932,255.053 287.151 C 253.544 286.464,253.611 292.703,253.605 153.300 L 253.600 21.600 247.689 21.600 C 239.870 21.600,240.000 21.688,240.000 16.377 L 240.000 12.400 202.400 12.400 L 164.800 12.400 164.800 16.377 M301.378 479.714 C 301.265 480.008,301.224 482.308,301.286 484.824 L 301.400 489.400 307.600 489.400 L 313.800 489.400 313.800 484.400 L 313.800 479.400 307.691 479.290 C 302.883 479.203,301.539 479.293,301.378 479.714 M90.974 491.323 C 90.859 491.622,90.818 493.382,90.883 495.233 L 91.000 498.600 97.200 498.600 L 103.400 498.600 103.400 494.800 L 103.400 491.000 97.291 490.890 C 92.434 490.802,91.140 490.890,90.974 491.323 " stroke="none" fill="#ecf0f1" fill-rule="evenodd"></path><path id="path3" d="M164.700 11.632 C 164.117 11.972,164.000 12.631,164.000 15.587 C 164.000 20.775,164.512 20.400,157.434 20.400 C 153.197 20.400,151.147 20.552,150.675 20.900 C 150.041 21.368,149.991 29.880,149.899 153.800 L 149.800 286.200 127.645 286.303 C 111.616 286.378,105.339 286.282,104.945 285.954 C 104.489 285.576,104.400 274.332,104.400 216.975 C 104.400 162.592,104.297 148.380,103.900 148.124 C 103.625 147.946,100.610 147.710,97.200 147.600 L 91.000 147.400 90.884 143.614 C 90.706 137.828,93.314 138.400,67.109 138.400 C 41.097 138.400,43.679 137.847,43.515 143.456 L 43.400 147.400 37.220 147.511 C 32.180 147.601,30.906 147.742,30.320 148.273 C 29.197 149.289,29.197 308.711,30.320 309.727 C 30.906 310.258,32.180 310.399,37.220 310.489 L 43.400 310.600 43.515 314.567 C 43.668 319.807,43.269 319.571,52.020 319.587 C 60.570 319.603,60.000 319.185,60.000 325.431 C 60.000 331.512,59.555 331.151,67.228 331.289 L 73.400 331.400 73.514 335.251 C 73.684 341.017,68.956 340.379,112.429 340.498 L 149.800 340.600 149.901 414.758 C 149.975 469.238,149.883 489.059,149.552 489.458 C 149.189 489.895,146.385 490.000,135.031 490.000 C 124.620 490.000,120.835 490.125,120.480 490.480 C 119.713 491.247,119.836 498.579,120.629 499.371 C 121.679 500.422,253.185 500.322,254.137 499.270 C 254.747 498.596,254.806 492.036,254.899 414.970 L 255.000 331.400 284.515 331.200 C 310.167 331.026,314.079 330.921,314.409 330.400 C 314.617 330.070,314.791 327.790,314.794 325.333 C 314.803 319.034,314.034 319.600,322.581 319.600 C 331.495 319.600,331.117 319.827,331.284 314.386 L 331.400 310.600 337.600 310.400 C 345.352 310.150,344.800 310.579,344.800 304.809 C 344.800 298.193,344.013 298.800,352.581 298.800 C 361.688 298.800,361.132 299.209,361.287 292.383 L 361.400 287.400 367.580 287.289 C 372.620 287.199,373.894 287.058,374.480 286.527 C 375.603 285.511,375.603 128.489,374.480 127.473 C 373.894 126.942,372.620 126.801,367.580 126.711 L 361.400 126.600 361.297 123.000 C 361.240 121.020,360.984 118.995,360.729 118.500 L 360.265 117.600 337.794 117.600 C 311.471 117.600,314.094 117.027,313.916 122.814 L 313.800 126.600 307.600 126.800 C 304.190 126.910,301.175 127.146,300.900 127.324 C 300.503 127.581,300.400 143.872,300.400 206.575 C 300.400 272.711,300.312 285.575,299.855 285.954 C 299.461 286.282,293.184 286.378,277.155 286.303 L 255.000 286.200 254.899 153.844 C 254.804 28.370,254.762 21.460,254.099 20.956 C 253.591 20.571,251.742 20.422,247.343 20.413 C 240.292 20.398,240.800 20.773,240.800 15.581 C 240.800 12.478,240.702 11.976,240.026 11.614 C 238.963 11.045,165.678 11.062,164.700 11.632 M240.000 16.377 C 240.000 21.688,239.870 21.600,247.689 21.600 L 253.600 21.600 253.605 153.300 C 253.611 292.703,253.544 286.464,255.053 287.151 C 256.766 287.932,299.181 287.769,300.311 286.977 L 301.200 286.355 301.200 207.177 L 301.200 128.000 307.400 128.000 C 315.297 128.000,315.200 128.067,315.200 122.600 L 315.200 118.800 337.563 118.800 L 359.925 118.800 360.063 122.781 C 360.243 128.012,359.892 127.773,367.619 127.928 L 374.000 128.055 374.000 207.000 L 374.000 285.945 367.619 286.072 C 359.737 286.230,360.236 285.810,360.068 292.419 L 359.936 297.600 352.813 297.600 C 343.574 297.600,344.043 297.263,343.904 304.000 L 343.800 309.000 337.600 309.102 C 329.873 309.229,330.000 309.137,330.000 314.620 L 330.000 318.352 322.432 318.476 C 318.270 318.544,314.715 318.749,314.532 318.932 C 314.350 319.114,314.110 321.634,314.000 324.532 L 313.800 329.800 284.268 330.000 C 255.617 330.194,254.718 330.223,254.168 330.976 C 253.682 331.641,253.600 343.780,253.600 415.278 L 253.600 498.802 187.300 498.701 L 121.000 498.600 121.000 494.800 L 121.000 491.000 135.400 490.902 C 149.516 490.806,149.814 490.787,150.500 489.958 C 151.366 488.911,151.612 342.543,150.751 340.653 C 150.076 339.171,151.157 339.211,111.700 339.205 L 74.800 339.200 74.800 335.489 C 74.800 329.863,74.990 330.000,67.177 330.000 L 60.800 330.000 60.800 324.823 C 60.800 318.034,61.307 318.400,51.911 318.400 L 44.800 318.400 44.800 314.600 C 44.800 309.133,44.897 309.200,37.000 309.200 L 30.800 309.200 30.800 229.028 L 30.800 148.855 37.181 148.728 C 44.908 148.573,44.557 148.812,44.737 143.581 L 44.875 139.600 67.237 139.600 L 89.600 139.600 89.600 143.400 C 89.600 148.867,89.503 148.800,97.400 148.800 L 103.600 148.800 103.600 217.577 L 103.600 286.355 104.489 286.977 C 105.267 287.523,108.107 287.600,127.307 287.600 L 149.236 287.600 150.218 286.618 L 151.200 285.636 151.200 153.618 L 151.200 21.600 157.111 21.600 C 164.930 21.600,164.800 21.688,164.800 16.377 L 164.800 12.400 202.400 12.400 L 240.000 12.400 240.000 16.377 M300.880 478.880 C 300.038 479.722,300.229 489.582,301.100 490.243 C 302.303 491.156,313.287 491.009,314.138 490.069 C 314.970 489.149,315.124 479.684,314.320 478.880 C 313.648 478.208,301.552 478.208,300.880 478.880 M313.800 484.400 L 313.800 489.400 307.600 489.400 L 301.400 489.400 301.286 484.824 C 301.132 478.636,300.525 479.160,307.691 479.290 L 313.800 479.400 313.800 484.400 M90.480 490.480 C 89.592 491.368,89.841 499.087,90.774 499.586 C 92.107 500.300,103.023 500.120,103.771 499.371 C 104.564 498.579,104.687 491.247,103.920 490.480 C 103.248 489.808,91.152 489.808,90.480 490.480 M103.400 494.800 L 103.400 498.600 97.200 498.600 L 91.000 498.600 90.883 495.233 C 90.715 490.424,90.218 490.762,97.291 490.890 L 103.400 491.000 103.400 494.800 " stroke="none" fill="#78aca8" fill-rule="evenodd"></path><path id="path4" d="" stroke="none" fill="#d0fc100" fill-rule="evenodd"></path></g></svg>