<svg id="svg" version="1.1" width="400" height="265.4761904761905" viewBox="0 0 400 265.4761904761905" xmlns="http://www.w3.org/2000/svg" xmlns:xlink="http://www.w3.org/1999/xlink" ><g id="svgg"><path id="path0" d="M0.000 70.120 L 0.000 140.239 8.765 140.239 L 17.530 140.239 17.530 130.465 C 17.530 123.217,17.612 120.608,17.849 120.372 C 18.083 120.137,20.428 120.053,26.746 120.053 L 35.325 120.053 35.325 110.409 C 35.325 103.110,35.406 100.657,35.657 100.318 C 35.955 99.917,36.884 99.863,44.622 99.802 L 53.254 99.734 53.386 90.305 L 53.519 80.876 61.687 80.806 L 69.854 80.736 69.854 71.096 C 69.854 63.802,69.935 61.346,70.186 61.004 C 70.494 60.585,71.819 60.557,88.313 60.621 L 106.109 60.691 106.242 80.212 L 106.375 99.734 115.007 99.802 C 122.744 99.863,123.673 99.917,123.971 100.318 C 124.229 100.667,124.303 105.129,124.303 120.502 L 124.303 140.239 132.802 140.239 L 141.301 140.239 141.301 100.664 L 141.301 61.089 132.722 61.089 C 126.404 61.089,124.059 61.005,123.825 60.770 C 123.581 60.526,123.506 53.381,123.506 30.226 L 123.506 0.000 61.753 0.000 L 0.000 0.000 0.000 70.120 M142.098 9.960 L 142.098 19.920 150.677 19.920 C 156.996 19.920,159.340 20.004,159.575 20.239 C 159.811 20.475,159.894 23.084,159.894 30.332 L 159.894 40.106 167.795 40.110 C 172.306 40.113,175.868 40.222,176.096 40.366 C 176.434 40.580,176.514 42.107,176.627 50.521 L 176.760 60.425 185.458 60.495 C 190.242 60.534,194.183 60.593,194.215 60.628 C 194.247 60.662,194.337 65.173,194.414 70.651 L 194.555 80.611 203.320 80.744 L 212.085 80.876 212.218 90.305 L 212.351 99.734 221.116 99.867 L 229.880 100.000 230.013 109.960 L 230.146 119.920 238.778 119.988 C 246.516 120.049,247.445 120.103,247.742 120.504 C 248.001 120.853,248.074 125.315,248.074 140.688 L 248.074 160.425 256.555 160.425 C 263.910 160.425,265.090 160.480,265.452 160.842 C 265.817 161.207,265.870 162.493,265.870 170.935 L 265.870 180.611 318.418 180.611 C 368.989 180.611,370.983 180.629,371.406 181.097 C 372.006 181.760,372.084 200.800,371.488 201.294 C 371.231 201.508,363.701 201.610,344.729 201.659 L 318.327 201.726 318.327 211.421 L 318.327 221.116 335.933 221.248 C 351.195 221.363,353.572 221.434,353.791 221.780 C 354.324 222.623,354.113 241.295,353.565 241.792 C 353.120 242.194,350.876 242.231,326.739 242.231 L 300.398 242.231 300.398 252.005 C 300.398 259.253,300.316 261.862,300.080 262.098 C 299.444 262.734,176.446 262.540,176.105 261.903 C 175.930 261.576,175.830 257.906,175.830 251.810 L 175.830 242.231 168.054 242.231 C 161.446 242.231,160.189 242.169,159.687 241.818 L 159.097 241.404 159.097 231.592 L 159.097 221.780 150.480 221.780 C 143.879 221.780,141.814 221.702,141.649 221.448 C 141.531 221.265,141.375 216.753,141.301 211.421 L 141.169 201.726 132.632 201.656 C 125.942 201.601,124.033 201.510,123.804 201.235 C 123.607 200.997,123.490 197.749,123.443 191.212 L 123.373 181.541 114.896 181.470 C 109.182 181.423,106.304 181.304,106.065 181.106 C 105.781 180.870,105.710 178.862,105.710 171.017 L 105.710 161.222 52.855 161.222 L 0.000 161.222 0.000 213.413 L 0.000 265.604 200.000 265.604 L 400.000 265.604 400.000 132.802 L 400.000 0.000 271.049 0.000 L 142.098 0.000 142.098 9.960 " stroke="none" fill="#34495e" fill-rule="evenodd"></path><path id="path1" d="M124.037 30.279 L 124.037 60.558 132.616 60.558 C 138.935 60.558,141.279 60.642,141.514 60.876 C 141.977 61.340,141.977 139.988,141.514 140.452 C 141.279 140.686,138.976 140.770,132.802 140.770 C 126.628 140.770,124.325 140.686,124.090 140.452 C 123.848 140.209,123.772 135.364,123.772 120.266 C 123.772 109.339,123.742 100.373,123.705 100.341 C 123.669 100.310,119.695 100.220,114.874 100.142 L 106.109 100.000 106.041 80.769 C 105.992 67.099,105.887 61.434,105.676 61.180 C 105.342 60.778,71.349 60.641,70.720 61.040 C 70.471 61.199,70.375 63.617,70.322 71.063 L 70.252 80.876 62.247 80.947 C 56.002 81.002,54.178 81.094,53.951 81.368 C 53.755 81.604,53.636 84.715,53.589 90.860 L 53.519 100.000 44.754 100.142 C 39.934 100.220,35.961 100.310,35.926 100.341 C 35.891 100.373,35.832 104.851,35.793 110.292 L 35.724 120.186 26.959 120.319 L 18.194 120.452 18.124 130.256 C 18.077 136.952,17.961 140.172,17.760 140.415 C 17.524 140.698,15.699 140.770,8.732 140.770 L 0.000 140.770 0.000 150.730 L 0.000 160.689 52.922 160.756 L 105.843 160.823 105.976 170.784 L 106.109 180.744 114.786 180.876 C 119.558 180.950,123.562 181.109,123.683 181.230 C 123.805 181.352,123.964 185.894,124.037 191.323 L 124.170 201.195 132.869 201.265 C 137.653 201.304,141.593 201.364,141.625 201.398 C 141.657 201.433,141.747 205.943,141.825 211.421 L 141.965 221.381 150.730 221.514 L 159.495 221.647 159.628 231.607 L 159.761 241.567 167.766 241.637 C 174.013 241.692,175.835 241.785,176.063 242.059 C 176.260 242.296,176.377 245.548,176.424 252.082 L 176.494 261.753 238.114 261.753 L 299.734 261.753 299.804 252.022 C 299.859 244.299,299.947 242.230,300.228 241.997 C 300.481 241.787,308.157 241.683,326.984 241.635 L 353.386 241.567 353.386 231.740 L 353.386 221.912 335.780 221.780 C 320.518 221.664,318.141 221.594,317.923 221.248 C 317.529 220.625,317.584 202.044,317.981 201.647 C 318.225 201.403,324.476 201.327,344.475 201.324 C 358.872 201.322,370.802 201.224,370.986 201.107 C 371.248 200.941,371.306 198.756,371.252 191.085 L 371.182 181.275 318.619 181.208 C 280.589 181.159,265.957 181.059,265.700 180.846 C 265.418 180.612,265.331 178.554,265.275 170.820 L 265.206 161.089 256.729 161.019 C 251.015 160.971,248.137 160.853,247.898 160.654 C 247.608 160.414,247.543 156.763,247.543 140.637 C 247.543 124.512,247.478 120.861,247.189 120.621 C 246.949 120.422,244.072 120.303,238.357 120.256 L 229.880 120.186 229.811 110.515 C 229.764 103.977,229.646 100.729,229.449 100.492 C 229.221 100.216,227.312 100.125,220.621 100.070 L 212.085 100.000 212.015 90.860 C 211.968 84.654,211.851 81.605,211.651 81.364 C 211.416 81.081,209.609 81.009,202.756 81.009 C 198.027 81.009,194.130 80.979,194.098 80.943 C 194.066 80.906,193.977 76.394,193.899 70.916 L 193.758 60.956 185.060 60.886 C 180.276 60.848,176.335 60.788,176.303 60.753 C 176.271 60.719,176.181 56.208,176.104 50.730 L 175.963 40.770 167.958 40.700 C 161.710 40.645,159.888 40.553,159.661 40.278 C 159.464 40.041,159.347 36.789,159.300 30.256 L 159.230 20.584 150.753 20.514 C 145.039 20.467,142.161 20.348,141.922 20.150 C 141.637 19.914,141.567 17.884,141.567 9.928 L 141.567 0.000 132.802 0.000 L 124.037 0.000 124.037 30.279 " stroke="none" fill="#ecf0f1" fill-rule="evenodd"></path><path id="path2" d="" stroke="none" fill="#d0100a8" fill-rule="evenodd"></path><path id="path3" d="" stroke="none" fill="#d0100a8" fill-rule="evenodd"></path><path id="path4" d="" stroke="none" fill="#d0100a8" fill-rule="evenodd"></path></g></svg>